<svg width="55" height="55" viewBox="0 0 55 55" fill="none" xmlns="http://www.w3.org/2000/svg">
<path d="M11.2775 14.8628C11.4379 14.6212 11.6878 14.4532 11.9721 14.3958C12.2563 14.3384 12.5518 14.3962 12.7934 14.5566L16.0747 16.7463C16.3068 16.9108 16.4656 17.1594 16.5175 17.4391C16.5693 17.7189 16.5101 18.0079 16.3524 18.2447C16.1947 18.4815 15.951 18.6476 15.6729 18.7076C15.3947 18.7676 15.1042 18.7169 14.8628 18.5663L11.5816 16.3788C11.3403 16.218 11.1728 15.968 11.1158 15.6837C11.0587 15.3995 11.1169 15.1042 11.2775 14.8628ZM27.5 14.375C24.8893 14.375 22.3855 15.4121 20.5394 17.2582C18.6934 19.1042 17.6562 21.608 17.6562 24.2188V29.471L15.5475 34.7494C15.481 34.9153 15.4562 35.0951 15.4752 35.2728C15.4943 35.4506 15.5566 35.621 15.6568 35.7691C15.7569 35.9171 15.8919 36.0384 16.0498 36.1223C16.2077 36.2061 16.3837 36.25 16.5625 36.25H23.125C23.125 38.6738 25.0763 40.625 27.5 40.625C29.9237 40.625 31.875 38.6738 31.875 36.25H38.4375C38.616 36.2498 38.7918 36.206 38.9494 36.1222C39.1071 36.0385 39.2418 35.9175 39.3419 35.7697C39.442 35.6219 39.5045 35.4518 39.5237 35.2744C39.543 35.0969 39.5185 34.9174 39.4525 34.7516L37.3438 29.4688V24.2188C37.3438 21.608 36.3066 19.1042 34.4606 17.2582C32.6145 15.4121 30.1107 14.375 27.5 14.375ZM29.6875 36.25C29.6875 37.4663 28.7162 38.4375 27.5 38.4375C26.2838 38.4375 25.3125 37.4663 25.3125 36.25H29.6875ZM19.8438 24.2188C19.8438 22.1882 20.6504 20.2408 22.0862 18.805C23.522 17.3692 25.4694 16.5625 27.5 16.5625C29.5306 16.5625 31.478 17.3692 32.9138 18.805C34.3496 20.2408 35.1562 22.1882 35.1562 24.2188V29.6831C35.1566 29.8218 35.1833 29.9591 35.235 30.0878L36.8231 34.0625H18.1769L19.765 30.0878C19.8167 29.9591 19.8434 29.8218 19.8438 29.6831V24.2188ZM42.2066 14.5588C42.4479 14.4081 42.7385 14.3574 43.0166 14.4174C43.2947 14.4775 43.5385 14.6435 43.6962 14.8803C43.8539 15.1172 43.9131 15.4061 43.8612 15.6859C43.8094 15.9657 43.6505 16.2142 43.4184 16.3788L40.1372 18.5663C39.8958 18.7169 39.6053 18.7676 39.3271 18.7076C39.049 18.6476 38.8053 18.4815 38.6476 18.2447C38.4899 18.0079 38.4307 17.7189 38.4825 17.4391C38.5344 17.1594 38.6932 16.9108 38.9253 16.7463L42.2066 14.5588ZM10 24.2188C10 23.9287 10.1152 23.6505 10.3204 23.4454C10.5255 23.2402 10.8037 23.125 11.0938 23.125H14.375C14.6651 23.125 14.9433 23.2402 15.1484 23.4454C15.3535 23.6505 15.4688 23.9287 15.4688 24.2188C15.4688 24.5088 15.3535 24.787 15.1484 24.9922C14.9433 25.1973 14.6651 25.3125 14.375 25.3125H11.0938C10.8037 25.3125 10.5255 25.1973 10.3204 24.9922C10.1152 24.787 10 24.5088 10 24.2188ZM43.9062 23.125C44.1963 23.125 44.4745 23.2402 44.6796 23.4454C44.8848 23.6505 45 23.9287 45 24.2188C45 24.5088 44.8848 24.787 44.6796 24.9922C44.4745 25.1973 44.1963 25.3125 43.9062 25.3125H40.625C40.3349 25.3125 40.0567 25.1973 39.8516 24.9922C39.6465 24.787 39.5312 24.5088 39.5312 24.2188C39.5312 23.9287 39.6465 23.6505 39.8516 23.4454C40.0567 23.2402 40.3349 23.125 40.625 23.125H43.9062Z" fill="#E21B1B"/>
<circle cx="27.5" cy="27.5" r="27.5" fill="#D81B1B" fill-opacity="0.1"/>
</svg>
