<svg width="80" height="80" viewBox="0 0 80 80" fill="none" xmlns="http://www.w3.org/2000/svg">
<path d="M31.1 13.0631C25.4547 10.3678 17.5641 9.04745 7.00001 9.00057C6.00371 8.98704 5.02696 9.27755 4.20001 9.83338C3.52124 10.2922 2.96561 10.9107 2.58199 11.6347C2.19837 12.3586 1.99852 13.1657 2.00001 13.9849V58.6881C2.00001 61.7099 4.15001 63.9896 7.00001 63.9896C18.1047 63.9896 29.2438 65.0271 35.9156 71.3334C36.0069 71.42 36.1216 71.478 36.2455 71.5C36.3695 71.522 36.4971 71.5071 36.6126 71.4572C36.7282 71.4072 36.8265 71.3244 36.8953 71.2191C36.9642 71.1138 37.0006 70.9905 37 70.8646V18.1912C37.0003 17.8358 36.9243 17.4845 36.7771 17.161C36.6299 16.8376 36.415 16.5495 36.1469 16.3162C34.6186 15.0097 32.921 13.9154 31.1 13.0631ZM74.8 9.8287C73.9726 9.27425 72.9959 8.98535 72 9.00057C61.4359 9.04745 53.5453 10.3615 47.9 13.0631C46.0791 13.9139 44.381 15.006 42.8516 16.3099C42.5841 16.5436 42.3697 16.8318 42.2228 17.1552C42.0759 17.4787 42 17.8298 42 18.1849V70.8615C41.9999 70.9825 42.0356 71.1007 42.1025 71.2015C42.1693 71.3022 42.2645 71.381 42.376 71.4279C42.4874 71.4748 42.6103 71.4877 42.7291 71.4651C42.8479 71.4424 42.9574 71.3852 43.0438 71.3006C47.0547 67.3162 54.0938 63.9849 72.0063 63.9865C73.3323 63.9865 74.6041 63.4597 75.5418 62.522C76.4795 61.5844 77.0063 60.3126 77.0063 58.9865V13.9865C77.0081 13.1656 76.8078 12.3569 76.423 11.6318C76.0382 10.9066 75.4808 10.2874 74.8 9.8287Z" fill="#C0BE8A"/>
</svg>
