<svg width="75" height="75" viewBox="0 0 75 75" fill="none" xmlns="http://www.w3.org/2000/svg">
<path d="M9.375 21.0938C11.2398 21.0938 13.0282 20.353 14.3468 19.0343C15.6655 17.7157 16.4062 15.9273 16.4062 14.0625C16.4062 12.1977 15.6655 10.4093 14.3468 9.09066C13.0282 7.77204 11.2398 7.03125 9.375 7.03125C7.5102 7.03125 5.72177 7.77204 4.40316 9.09066C3.08454 10.4093 2.34375 12.1977 2.34375 14.0625C2.34375 15.9273 3.08454 17.7157 4.40316 19.0343C5.72177 20.353 7.5102 21.0938 9.375 21.0938ZM28.125 9.375C25.5322 9.375 23.4375 11.4697 23.4375 14.0625C23.4375 16.6553 25.5322 18.75 28.125 18.75H70.3125C72.9053 18.75 75 16.6553 75 14.0625C75 11.4697 72.9053 9.375 70.3125 9.375H28.125ZM28.125 32.8125C25.5322 32.8125 23.4375 34.9072 23.4375 37.5C23.4375 40.0928 25.5322 42.1875 28.125 42.1875H70.3125C72.9053 42.1875 75 40.0928 75 37.5C75 34.9072 72.9053 32.8125 70.3125 32.8125H28.125ZM28.125 56.25C25.5322 56.25 23.4375 58.3447 23.4375 60.9375C23.4375 63.5303 25.5322 65.625 28.125 65.625H70.3125C72.9053 65.625 75 63.5303 75 60.9375C75 58.3447 72.9053 56.25 70.3125 56.25H28.125ZM9.375 67.9688C11.2398 67.9688 13.0282 67.228 14.3468 65.9093C15.6655 64.5907 16.4062 62.8023 16.4062 60.9375C16.4062 59.0727 15.6655 57.2843 14.3468 55.9657C13.0282 54.647 11.2398 53.9062 9.375 53.9062C7.5102 53.9062 5.72177 54.647 4.40316 55.9657C3.08454 57.2843 2.34375 59.0727 2.34375 60.9375C2.34375 62.8023 3.08454 64.5907 4.40316 65.9093C5.72177 67.228 7.5102 67.9688 9.375 67.9688ZM16.4062 37.5C16.4062 36.5766 16.2244 35.6623 15.871 34.8093C15.5177 33.9562 14.9998 33.1811 14.3468 32.5282C13.6939 31.8752 12.9188 31.3573 12.0657 31.004C11.2127 30.6506 10.2984 30.4688 9.375 30.4688C8.45164 30.4688 7.53733 30.6506 6.68426 31.004C5.83119 31.3573 5.05607 31.8752 4.40316 32.5282C3.75024 33.1811 3.23233 33.9562 2.87897 34.8093C2.52562 35.6623 2.34375 36.5766 2.34375 37.5C2.34375 38.4234 2.52562 39.3377 2.87897 40.1907C3.23233 41.0438 3.75024 41.8189 4.40316 42.4718C5.05607 43.1248 5.83119 43.6427 6.68426 43.996C7.53733 44.3494 8.45164 44.5312 9.375 44.5312C10.2984 44.5312 11.2127 44.3494 12.0657 43.996C12.9188 43.6427 13.6939 43.1248 14.3468 42.4718C14.9998 41.8189 15.5177 41.0438 15.871 40.1907C16.2244 39.3377 16.4062 38.4234 16.4062 37.5Z" fill="#6C81A3"/>
</svg>
