<svg width="85" height="85" viewBox="0 0 85 85" fill="none" xmlns="http://www.w3.org/2000/svg">
<path d="M56.6666 60.2084V67.2917H7.08331V60.2084C7.08331 60.2084 7.08331 46.0417 31.875 46.0417C56.6666 46.0417 56.6666 60.2084 56.6666 60.2084ZM44.2708 26.5625C44.2708 24.1109 43.5438 21.7143 42.1817 19.6758C40.8197 17.6373 38.8837 16.0485 36.6187 15.1103C34.3536 14.1721 31.8612 13.9266 29.4567 14.4049C27.0521 14.8832 24.8434 16.0638 23.1098 17.7973C21.3762 19.5309 20.1956 21.7397 19.7173 24.1442C19.239 26.5488 19.4845 29.0412 20.4227 31.3062C21.3609 33.5712 22.9497 35.5072 24.9882 36.8693C27.0267 38.2314 29.4233 38.9584 31.875 38.9584C35.1626 38.9584 38.3155 37.6524 40.6402 35.3277C42.9648 33.003 44.2708 29.8501 44.2708 26.5625ZM56.4541 46.0417C58.6314 47.7266 60.4129 49.8682 61.6734 52.3158C62.9339 54.7633 63.6427 57.4574 63.75 60.2084V67.2917H77.9166V60.2084C77.9166 60.2084 77.9166 47.3521 56.4541 46.0417ZM53.125 14.1667C50.6872 14.1531 48.3031 14.8819 46.2896 16.2563C48.4409 19.2622 49.5977 22.866 49.5977 26.5625C49.5977 30.259 48.4409 33.8628 46.2896 36.8688C48.3031 38.2431 50.6872 38.9719 53.125 38.9584C56.4126 38.9584 59.5655 37.6524 61.8902 35.3277C64.2148 33.003 65.5208 29.8501 65.5208 26.5625C65.5208 23.2749 64.2148 20.122 61.8902 17.7973C59.5655 15.4727 56.4126 14.1667 53.125 14.1667Z" fill="#9BB48C"/>
</svg>
