<svg width="80" height="80" viewBox="0 0 80 80" fill="none" xmlns="http://www.w3.org/2000/svg">
<g clip-path="url(#clip0_100_3)">
<path d="M53.3333 46.6667C57.7536 46.6667 61.9928 48.4227 65.1184 51.5483C68.2441 54.6739 70 58.9131 70 63.3334V66.6667C70 68.4349 69.2976 70.1305 68.0474 71.3808C66.7971 72.631 65.1014 73.3334 63.3333 73.3334H16.6667C14.8986 73.3334 13.2029 72.631 11.9526 71.3808C10.7024 70.1305 10 68.4349 10 66.6667V63.3334C10 58.9131 11.7559 54.6739 14.8816 51.5483C18.0072 48.4227 22.2464 46.6667 26.6667 46.6667H53.3333ZM66.6667 26.6667C67.5507 26.6667 68.3986 27.0179 69.0237 27.6431C69.6488 28.2682 70 29.116 70 30.0001V33.3334H73.3333C74.2174 33.3334 75.0652 33.6846 75.6904 34.3097C76.3155 34.9348 76.6667 35.7827 76.6667 36.6667C76.6667 37.5508 76.3155 38.3986 75.6904 39.0238C75.0652 39.6489 74.2174 40.0001 73.3333 40.0001H70V43.3334C70 44.2175 69.6488 45.0653 69.0237 45.6904C68.3986 46.3156 67.5507 46.6667 66.6667 46.6667C65.7826 46.6667 64.9348 46.3156 64.3096 45.6904C63.6845 45.0653 63.3333 44.2175 63.3333 43.3334V40.0001H60C59.1159 40.0001 58.2681 39.6489 57.643 39.0238C57.0179 38.3986 56.6667 37.5508 56.6667 36.6667C56.6667 35.7827 57.0179 34.9348 57.643 34.3097C58.2681 33.6846 59.1159 33.3334 60 33.3334H63.3333V30.0001C63.3333 29.116 63.6845 28.2682 64.3096 27.6431C64.9348 27.0179 65.7826 26.6667 66.6667 26.6667ZM40 6.66675C44.4203 6.66675 48.6595 8.4227 51.7851 11.5483C54.9107 14.6739 56.6667 18.9131 56.6667 23.3334C56.6667 27.7537 54.9107 31.9929 51.7851 35.1185C48.6595 38.2441 44.4203 40.0001 40 40.0001C35.5797 40.0001 31.3405 38.2441 28.2149 35.1185C25.0893 31.9929 23.3333 27.7537 23.3333 23.3334C23.3333 18.9131 25.0893 14.6739 28.2149 11.5483C31.3405 8.4227 35.5797 6.66675 40 6.66675Z" fill="#87B2BC"/>
</g>
<defs>
<clipPath id="clip0_100_3">
<rect width="80" height="80" fill="white"/>
</clipPath>
</defs>
</svg>
