<svg width="75" height="75" viewBox="0 0 75 75" fill="none" xmlns="http://www.w3.org/2000/svg">
<path d="M37.5 2.34377C27.8706 2.05293 18.5182 5.589 11.49 12.1779C4.46184 18.7669 0.330373 27.8719 0 37.5C0.330373 47.1281 4.46184 56.2332 11.49 62.8221C18.5182 69.411 27.8706 72.9471 37.5 72.6563C47.1294 72.9471 56.4818 69.411 63.51 62.8221C70.5382 56.2332 74.6696 47.1281 75 37.5C74.6696 27.8719 70.5382 18.7669 63.51 12.1779C56.4818 5.589 47.1294 2.05293 37.5 2.34377ZM5.85938 37.5C5.96393 30.1965 8.90579 23.22 14.0625 18.0469L56.6719 60.9375C51.0327 64.8092 44.3401 66.8546 37.5 66.7969C29.4242 67.0887 21.5616 64.1702 15.6321 58.6799C9.70253 53.1896 6.18875 45.5743 5.85938 37.5ZM60.9375 56.9531L18.3281 14.0625C23.9673 10.1909 30.6599 8.14545 37.5 8.20314C45.5758 7.91136 53.4384 10.8298 59.3679 16.3202C65.2975 21.8105 68.8112 29.4257 69.1406 37.5C69.0361 44.8036 66.0942 51.78 60.9375 56.9531Z" fill="#7E74AC"/>
</svg>
