<svg width="55" height="55" viewBox="0 0 55 55" fill="none" xmlns="http://www.w3.org/2000/svg">
<path d="M32.2292 32.0417H31.0771L30.6688 31.6479C32.1473 29.933 32.9599 27.7435 32.9583 25.4792C32.9583 23.6044 32.4024 21.7717 31.3608 20.2128C30.3192 18.654 28.8388 17.439 27.1067 16.7216C25.3746 16.0041 23.4687 15.8164 21.6299 16.1821C19.7911 16.5479 18.1021 17.4507 16.7764 18.7764C15.4507 20.1021 14.5479 21.7911 14.1821 23.6299C13.8164 25.4687 14.0041 27.3746 14.7216 29.1067C15.439 30.8388 16.654 32.3192 18.2128 33.3608C19.7717 34.4024 21.6044 34.9583 23.4792 34.9583C25.8271 34.9583 27.9854 34.0979 29.6479 32.6688L30.0417 33.0771V34.2292L37.3333 41.5063L39.5063 39.3333L32.2292 32.0417ZM23.4792 32.0417C19.8479 32.0417 16.9167 29.1104 16.9167 25.4792C16.9167 21.8479 19.8479 18.9167 23.4792 18.9167C27.1104 18.9167 30.0417 21.8479 30.0417 25.4792C30.0417 29.1104 27.1104 32.0417 23.4792 32.0417Z" fill="#E8E020"/>
<circle cx="27.5" cy="27.5" r="27.5" fill="#D4D824" fill-opacity="0.1"/>
</svg>
