<svg width="55" height="55" viewBox="0 0 55 55" fill="none" xmlns="http://www.w3.org/2000/svg">
<path d="M26.7708 14.9316C25.4171 14.9316 24.1188 15.4785 23.1616 16.4518C22.2044 17.4252 21.6666 18.7453 21.6666 20.1218C21.6666 21.4984 22.2044 22.8185 23.1616 23.7919C24.1188 24.7652 25.4171 25.312 26.7708 25.312C28.1245 25.312 29.4228 24.7652 30.38 23.7919C31.3372 22.8185 31.875 21.4984 31.875 20.1218C31.875 18.7453 31.3372 17.4252 30.38 16.4518C29.4228 15.4785 28.1245 14.9316 26.7708 14.9316ZM18.75 20.1218C18.75 17.9587 19.595 15.8842 21.0992 14.3547C22.6034 12.8251 24.6435 11.9658 26.7708 11.9658C28.8981 11.9658 30.9382 12.8251 32.4424 14.3547C33.9466 15.8842 34.7916 17.9587 34.7916 20.1218C34.7916 22.2849 33.9466 24.3595 32.4424 25.889C30.9382 27.4186 28.8981 28.2779 26.7708 28.2779C24.6435 28.2779 22.6034 27.4186 21.0992 25.889C19.595 24.3595 18.75 22.2849 18.75 20.1218ZM21.6666 32.7266C20.1195 32.7266 18.6358 33.3515 17.5418 34.4639C16.4479 35.5763 15.8333 37.0851 15.8333 38.6582H27.5729V41.6241H12.9166V38.6582C12.9166 36.2985 13.8385 34.0354 15.4794 32.3668C17.1204 30.6982 19.346 29.7608 21.6666 29.7608H27.5V32.7266H21.6666ZM38.4375 27.9071V29.9476C39.4802 30.2205 40.4091 30.778 41.1412 31.5373L42.881 30.5156L44.3393 33.084L42.601 34.1042C42.8844 35.1434 42.8844 36.2414 42.601 37.2806L44.3393 38.3009L42.881 40.8693L41.1412 39.8475C40.3988 40.6175 39.4641 41.1671 38.4375 41.4372V43.4777H35.5208V41.4372C34.4941 41.1673 33.5593 40.6177 32.817 39.8475L31.0773 40.8693L29.6189 38.3009L31.3573 37.2806C31.0736 36.2415 31.0736 35.1434 31.3573 34.1042L29.6189 33.084L31.0773 30.5156L32.817 31.5358C33.5594 30.7662 34.4942 30.2171 35.5208 29.9476V27.9071H38.4375ZM34.4256 34.2584C34.1862 34.6972 34.0607 35.1907 34.061 35.6924C34.061 36.2114 34.1937 36.7008 34.4256 37.1264L34.4781 37.2198C34.7369 37.6594 35.1034 38.0232 35.5417 38.2758C35.9801 38.5284 36.4753 38.6612 36.9791 38.6612C37.483 38.6612 37.9782 38.5284 38.4165 38.2758C38.8549 38.0232 39.2213 37.6594 39.4802 37.2198L39.5327 37.1264C39.7645 36.7008 39.8958 36.2129 39.8958 35.6924C39.8958 35.1734 39.7645 34.684 39.5327 34.2584L39.4802 34.165C39.2213 33.7255 38.8549 33.3617 38.4165 33.1091C37.9782 32.8564 37.483 32.7237 36.9791 32.7237C36.4753 32.7237 35.9801 32.8564 35.5417 33.1091C35.1034 33.3617 34.7369 33.7255 34.4781 34.165L34.4256 34.2584Z" fill="#0F72A9"/>
<circle cx="27.5" cy="27.5" r="27.5" fill="#0F5FA9" fill-opacity="0.1"/>
</svg>
