<svg width="55" height="55" viewBox="0 0 55 55" fill="none" xmlns="http://www.w3.org/2000/svg">
<path d="M26.8668 11.9359C18.2115 11.9359 11.2026 18.9605 11.2026 27.6158C11.2026 36.271 18.2115 43.2956 26.8668 43.2956C35.5377 43.2956 42.5623 36.271 42.5623 27.6158C42.5623 18.9605 35.5377 11.9359 26.8668 11.9359ZM26.8825 40.1596C19.952 40.1596 14.3386 34.5462 14.3386 27.6158C14.3386 20.6853 19.952 15.0719 26.8825 15.0719C33.8129 15.0719 39.4263 20.6853 39.4263 27.6158C39.4263 34.5462 33.8129 40.1596 26.8825 40.1596Z" fill="#0FA958"/>
<path d="M27.6664 19.7759H25.3145V29.1838L33.5464 34.1229L34.7223 32.1943L27.6664 28.0078V19.7759Z" fill="#0FA958"/>
<circle cx="27.5" cy="27.5" r="27.5" fill="#0FA958" fill-opacity="0.1"/>
</svg>
