<svg width="50" height="50" viewBox="0 0 50 50" fill="none" xmlns="http://www.w3.org/2000/svg">
<path d="M24.9822 0C11.1706 0 0 11.25 0 25.1429C0 37.6786 9.13633 48.1071 21.0921 50V32.4286H14.7395V25.1429H21.0921V19.6071C21.0921 13.2857 24.8394 9.82143 30.5139 9.82143C33.262 9.82143 36.1171 10.3214 36.1171 10.3214V16.5H32.9764C29.8715 16.5 28.9079 18.4286 28.9079 20.4286V25.1429H35.8316L34.7252 32.4286H28.9079V50C40.8637 48.1071 50 37.7143 50 25.1429C50 11.25 38.8294 0 25.0178 0H24.9822Z" fill="white"/>
</svg>
